<?xml version="1.0" encoding="UTF-8" ?>
<!DOCTYPE svg PUBLIC "-//W3C//DTD SVG 1.1//EN" "http://www.w3.org/Graphics/SVG/1.1/DTD/svg11.dtd">
<svg width="1225pt" height="816pt" viewBox="0 0 1225 816" version="1.1" xmlns="http://www.w3.org/2000/svg">
<path fill="#ffffff" d=" M 0.00 0.00 L 1225.00 0.00 L 1225.00 816.00 L 0.00 816.00 L 0.00 0.00 Z" />
<path fill="#000000" d=" M 468.52 234.41 C 471.38 234.43 474.24 234.42 477.11 234.44 C 477.98 236.70 478.93 238.93 479.87 241.16 C 480.66 243.05 481.45 244.94 482.25 246.83 C 491.07 267.95 499.93 289.05 508.76 310.16 C 525.11 349.14 541.45 388.13 557.75 427.13 C 567.24 449.69 576.70 472.26 586.12 494.85 C 590.20 504.66 594.31 514.47 598.71 524.16 C 598.96 524.65 599.45 525.65 599.69 526.15 C 601.03 528.80 602.40 531.45 603.76 534.10 C 607.55 540.81 611.55 547.57 617.12 552.99 C 626.08 561.10 638.37 564.57 650.27 564.84 C 647.16 566.16 644.17 567.72 641.14 569.19 C 636.16 571.22 631.50 574.90 625.81 574.17 C 608.19 573.51 590.58 574.20 572.95 574.12 C 561.95 573.58 550.95 574.34 539.95 573.85 C 532.82 573.59 525.70 574.67 518.60 573.73 C 518.66 570.76 518.64 567.79 518.67 564.83 C 527.68 564.61 537.00 563.47 544.98 559.00 C 549.74 555.12 553.31 549.33 552.55 542.98 C 551.21 530.33 545.88 518.57 541.18 506.90 C 540.34 504.97 539.53 503.04 538.71 501.12 C 537.89 499.01 537.00 496.94 536.08 494.89 C 533.05 487.64 530.04 480.38 526.97 473.15 C 525.48 469.64 524.11 466.08 522.37 462.70 C 479.55 462.81 436.73 462.70 393.91 462.75 C 393.21 464.47 392.50 466.19 391.76 467.90 C 388.80 474.90 385.74 481.85 382.76 488.85 C 377.01 503.11 369.92 516.86 365.37 531.57 C 363.67 536.85 362.60 542.50 363.56 548.03 C 364.50 551.77 367.26 554.58 369.81 557.32 C 373.03 559.37 376.55 560.90 380.23 561.93 C 387.22 563.54 394.35 564.67 401.53 564.80 C 401.58 567.79 401.56 570.78 401.54 573.78 C 393.05 574.74 384.52 573.51 376.02 574.08 C 362.32 573.75 348.62 574.15 334.91 573.85 C 327.60 573.96 320.29 573.63 312.99 574.11 C 308.28 574.39 303.59 573.60 298.89 574.03 C 298.35 573.93 297.28 573.71 296.74 573.60 C 296.83 570.72 296.68 567.84 296.91 564.98 C 305.27 563.36 313.85 561.65 321.31 557.36 C 328.06 552.33 332.52 545.02 336.84 537.95 C 338.90 534.27 340.88 530.55 342.80 526.80 C 353.71 503.90 362.98 480.28 373.20 457.07 C 374.99 452.77 376.93 448.54 378.65 444.22 C 424.34 444.04 470.04 444.79 515.74 444.65 C 514.12 440.82 512.61 436.96 510.92 433.18 C 510.00 431.07 509.08 428.97 508.21 426.86 C 507.22 424.53 506.24 422.20 505.28 419.87 C 501.42 410.97 497.64 402.04 493.79 393.14 C 491.90 388.74 490.02 384.33 488.20 379.90 C 476.36 352.47 464.85 324.89 453.91 297.09 C 452.22 292.49 450.26 288.00 448.60 283.39 C 447.97 281.99 448.68 280.55 449.22 279.26 C 450.53 276.21 451.92 273.20 453.21 270.14 C 458.28 258.22 463.38 246.30 468.52 234.41 Z" />
<path fill="#000000" d=" M 892.54 234.39 C 895.40 234.42 898.26 234.42 901.13 234.48 C 902.45 259.05 904.49 283.56 905.89 308.13 C 906.89 321.17 907.80 334.23 908.54 347.30 C 906.11 347.30 903.69 347.32 901.29 347.39 C 898.94 341.39 897.25 335.16 894.79 329.21 C 891.35 320.10 887.07 311.32 882.15 302.91 C 873.44 288.42 861.74 275.48 847.05 266.89 C 835.51 259.85 822.48 255.31 809.12 253.36 C 800.48 251.83 791.68 252.16 782.95 252.23 C 769.12 252.72 755.46 256.19 742.86 261.85 C 740.20 263.13 737.57 264.44 734.97 265.81 C 715.90 276.32 701.58 293.80 692.22 313.22 C 691.01 315.76 689.85 318.32 688.72 320.90 C 676.02 350.83 672.95 383.76 672.76 415.95 C 673.26 428.97 673.83 442.05 676.35 454.86 C 680.16 476.34 687.77 497.49 700.81 515.14 C 712.07 530.48 727.77 542.27 745.14 549.88 C 757.76 555.27 771.27 558.47 784.94 559.58 C 788.96 559.74 793.00 559.75 797.00 560.26 C 807.81 559.70 818.68 559.04 829.19 556.22 C 835.25 554.53 841.20 552.46 846.97 549.93 C 849.63 548.62 852.28 547.27 854.90 545.84 C 866.12 539.15 875.99 530.37 884.76 520.74 C 889.23 515.88 893.56 510.89 897.66 505.72 C 901.30 500.97 905.17 496.38 908.35 491.29 C 911.02 492.72 913.54 494.43 916.13 496.03 C 911.19 505.15 905.46 513.86 899.29 522.20 C 888.98 535.77 877.00 548.19 862.91 557.85 C 847.07 568.64 828.81 575.66 809.98 579.00 C 786.94 582.86 763.16 582.47 740.25 577.90 C 720.42 573.88 701.36 565.90 684.82 554.20 C 663.37 538.84 646.46 517.64 634.73 494.10 C 619.29 462.61 614.63 426.65 618.03 391.98 C 621.89 352.40 638.29 313.74 665.74 284.74 C 674.38 275.58 684.26 267.67 694.78 260.77 C 733.13 236.04 782.00 227.82 826.14 239.81 C 831.18 241.38 836.25 242.88 841.17 244.83 C 846.82 247.07 852.40 249.51 857.84 252.25 C 858.33 252.51 859.30 253.02 859.79 253.27 C 865.31 255.75 871.53 259.09 877.62 256.36 C 886.51 252.83 890.23 242.94 892.54 234.39 Z" />
<path fill="#000000" d=" M 124.75 242.25 C 126.49 242.02 128.23 241.79 129.99 241.79 C 169.33 241.81 208.66 241.80 247.99 241.80 C 269.24 242.29 290.76 243.25 311.29 249.26 C 333.48 255.53 353.17 270.12 365.70 289.47 C 375.01 303.71 378.80 321.11 378.01 337.97 C 377.56 349.28 375.60 360.62 371.17 371.09 C 365.38 385.37 355.27 397.69 342.91 406.83 C 324.50 420.15 301.37 424.87 279.02 425.41 C 258.98 425.64 239.03 422.66 219.48 418.47 C 219.42 446.98 219.47 475.49 219.45 504.00 C 219.50 515.64 219.16 527.35 220.94 538.90 C 221.78 543.62 222.67 548.50 225.28 552.62 C 227.38 555.90 230.60 558.22 233.82 560.31 C 234.32 560.57 235.32 561.09 235.81 561.35 C 245.70 565.94 256.84 564.82 267.43 565.20 C 267.36 568.06 267.34 570.93 267.38 573.80 C 263.63 574.26 259.86 574.16 256.11 573.90 C 244.76 573.78 233.40 573.84 222.06 574.15 C 203.04 573.47 184.02 574.64 165.00 573.84 C 154.04 574.50 143.07 573.38 132.10 574.02 C 129.65 574.24 127.20 573.96 124.77 573.70 C 124.79 570.90 124.79 568.11 124.77 565.32 C 135.28 564.25 146.34 566.14 156.20 561.34 C 161.16 558.75 165.34 554.89 168.31 550.15 C 172.18 539.90 172.16 528.76 172.44 517.96 C 172.46 444.29 172.48 370.61 172.43 296.94 C 172.10 285.77 171.93 274.17 167.44 263.73 C 163.21 258.15 157.03 254.20 150.24 252.53 C 141.94 250.16 133.23 251.79 124.78 250.68 C 124.79 247.87 124.80 245.06 124.75 242.25 Z" />
<path fill="#ffffff" d=" M 219.46 266.40 C 233.38 263.25 247.77 260.47 262.07 262.47 C 279.20 264.37 295.90 272.79 306.28 286.78 C 318.58 303.68 323.50 325.30 321.92 345.96 C 320.91 362.01 314.90 378.02 303.62 389.68 C 298.63 395.19 292.66 399.70 286.15 403.28 C 275.04 408.93 262.29 410.32 250.01 409.01 C 239.74 408.13 229.54 406.51 219.44 404.49 C 219.52 358.46 219.48 312.43 219.46 266.40 Z" />
<path fill="#030303" d=" M 926.92 308.93 C 931.62 305.12 938.43 304.29 943.88 306.95 C 947.70 309.03 949.78 313.27 950.48 317.44 C 951.96 325.67 951.78 334.51 948.39 342.27 C 944.16 349.48 933.50 350.90 927.09 345.91 C 923.07 342.18 922.35 336.35 921.89 331.19 C 921.38 323.54 922.09 315.22 926.92 308.93 Z" />
<path fill="#fefefe" d=" M 929.63 314.43 C 931.83 308.89 940.49 308.66 943.44 313.65 C 946.00 321.75 946.35 330.82 943.88 338.97 C 942.41 344.08 935.51 345.87 931.53 342.60 C 930.23 341.38 929.53 339.72 928.68 338.20 C 927.47 330.40 926.45 321.91 929.63 314.43 Z" />
<path fill="#010101" d=" M 773.52 311.35 C 775.17 310.11 777.34 310.73 779.26 310.57 C 779.28 322.95 779.29 335.34 779.24 347.72 C 782.04 347.73 784.83 347.74 787.64 347.77 C 787.67 349.25 787.67 350.74 787.65 352.23 C 779.97 352.29 772.29 352.25 764.61 352.26 C 764.36 351.68 763.85 350.51 763.60 349.93 C 763.88 349.38 764.44 348.30 764.72 347.76 C 767.71 347.74 770.72 347.73 773.72 347.69 C 773.65 337.22 773.81 326.75 773.64 316.28 C 770.61 318.18 767.54 320.00 764.44 321.77 C 764.18 320.40 762.75 318.51 764.34 317.44 C 767.19 315.14 770.48 313.42 773.52 311.35 Z" />
<path fill="#030303" d=" M 803.02 311.12 C 806.29 309.98 809.94 310.01 813.31 310.74 C 818.23 312.21 821.32 317.05 821.90 321.97 C 823.01 329.66 823.36 337.92 820.34 345.24 C 817.09 353.65 804.61 355.32 798.42 349.38 C 794.11 344.34 794.11 337.25 793.80 330.98 C 794.09 323.69 795.35 314.32 803.02 311.12 Z" />
<path fill="#ffffff" d=" M 801.72 318.58 C 803.84 314.12 810.66 313.26 813.89 316.92 C 815.81 319.48 816.56 322.74 816.70 325.89 C 816.94 330.97 816.92 336.07 816.33 341.12 C 815.10 344.83 812.45 348.95 807.93 348.32 C 802.42 348.53 800.36 342.58 799.74 338.12 C 799.72 331.60 798.77 324.65 801.72 318.58 Z" />
<path fill="#020202" d=" M 1047.78 349.60 C 1049.54 349.36 1051.30 349.10 1053.07 348.79 C 1056.57 349.32 1060.57 349.99 1062.81 353.08 C 1066.73 358.17 1066.77 364.88 1066.76 371.01 C 1066.74 376.51 1066.32 382.44 1063.05 387.08 C 1058.33 393.92 1046.60 394.36 1041.69 387.56 C 1037.57 381.17 1038.15 373.22 1038.38 365.97 C 1038.62 359.44 1041.25 352.19 1047.78 349.60 Z" />
<path fill="#030303" d=" M 1078.73 350.69 C 1083.45 348.79 1089.30 348.20 1093.83 350.89 C 1098.72 354.20 1099.77 360.47 1100.28 365.92 C 1100.56 372.95 1100.59 380.58 1096.76 386.77 C 1094.94 389.88 1091.53 391.44 1088.18 392.31 C 1086.37 392.31 1084.58 392.32 1082.81 392.34 C 1079.99 391.39 1076.87 390.37 1075.24 387.69 C 1071.79 382.55 1071.61 376.05 1071.57 370.07 C 1071.62 363.11 1072.88 355.24 1078.73 350.69 Z" />
<path fill="#ffffff" d=" M 1047.97 354.63 C 1050.23 353.74 1052.64 353.47 1055.07 353.65 C 1055.59 353.96 1056.63 354.56 1057.15 354.87 C 1061.06 358.83 1060.98 364.84 1061.29 370.03 C 1061.26 374.86 1061.15 380.11 1058.67 384.40 C 1055.81 389.17 1047.60 388.76 1045.61 383.41 C 1043.22 376.57 1043.31 369.02 1044.47 361.94 C 1044.77 359.17 1046.39 356.83 1047.97 354.63 Z" />
<path fill="#fefefe" d=" M 1081.30 355.17 C 1083.41 353.24 1086.37 353.60 1089.01 353.70 C 1095.37 357.90 1094.48 366.40 1094.61 373.02 C 1094.42 377.99 1094.16 384.62 1089.01 387.12 C 1085.82 388.39 1081.51 387.69 1079.66 384.54 C 1077.01 379.48 1077.25 373.59 1077.30 368.05 C 1077.44 363.60 1077.72 358.34 1081.30 355.17 Z" />
<path fill="#000000" d=" M 735.80 368.70 C 739.29 366.32 743.77 367.46 747.70 367.78 C 748.03 372.51 747.83 377.26 747.85 382.00 C 747.87 399.66 747.86 417.31 747.86 434.97 C 747.89 440.40 747.66 445.84 748.29 451.25 C 754.38 451.24 760.48 451.03 766.57 451.39 C 767.66 453.97 767.63 456.77 767.47 459.52 C 766.19 460.46 764.73 461.27 763.08 461.12 C 752.06 461.20 741.04 461.12 730.02 461.14 C 724.80 461.09 719.55 461.40 714.36 460.70 C 713.15 457.78 712.57 454.08 714.69 451.43 C 721.61 450.92 728.57 451.34 735.51 451.21 C 735.56 427.54 735.57 403.87 735.50 380.21 C 731.13 383.01 726.57 385.50 722.15 388.21 C 719.46 389.78 716.85 391.80 713.61 391.93 C 712.97 388.94 712.90 385.86 713.55 382.87 C 720.97 378.16 728.34 373.36 735.80 368.70 Z" />
<path fill="#030303" d=" M 877.05 401.08 C 880.47 391.44 896.04 390.16 900.82 399.22 C 903.90 405.49 903.72 412.76 903.30 419.57 C 902.65 425.10 901.07 431.61 895.60 434.25 C 889.69 437.15 881.36 436.18 877.61 430.31 C 873.85 421.12 873.78 410.41 877.05 401.08 Z" />
<path fill="#030303" d=" M 915.17 395.27 C 919.57 392.33 925.36 392.84 930.12 394.62 C 931.21 395.59 932.30 396.58 933.39 397.58 C 935.59 401.33 936.66 405.62 936.69 409.96 C 936.84 416.35 937.22 423.17 934.13 429.01 C 929.96 437.89 914.88 438.34 910.66 429.30 C 907.66 422.88 908.23 415.54 908.56 408.67 C 907.69 407.78 906.55 406.61 908.89 407.71 C 909.28 403.05 910.93 397.82 915.17 395.27 Z" />
<path fill="#030303" d=" M 984.66 393.64 C 989.17 393.13 994.45 392.52 998.15 395.77 C 1002.89 399.72 1003.45 406.34 1003.66 412.08 C 1003.75 419.06 1003.59 427.02 998.49 432.42 C 994.58 436.26 988.79 436.05 983.78 435.29 C 977.77 432.83 975.52 426.11 975.28 420.11 C 975.08 413.08 974.55 405.50 978.24 399.18 C 979.64 396.62 982.18 395.03 984.66 393.64 Z" />
<path fill="#000000" d=" M 844.64 400.72 C 848.29 398.32 851.86 395.76 855.71 393.68 C 857.20 393.55 858.71 393.50 860.23 393.52 C 860.21 405.91 860.20 418.29 860.25 430.68 C 863.01 430.68 865.77 430.68 868.54 430.72 C 868.58 432.21 868.61 433.71 868.61 435.21 C 860.92 435.24 853.22 435.20 845.53 435.24 C 845.30 434.67 844.84 433.52 844.61 432.95 C 844.89 432.38 845.46 431.23 845.74 430.66 C 848.71 430.69 851.68 430.70 854.66 430.68 C 854.60 420.19 854.79 409.69 854.58 399.20 C 851.43 401.25 848.24 403.29 844.78 404.76 C 844.71 403.41 844.68 402.07 844.64 400.72 Z" />
<path fill="#010101" d=" M 953.25 395.27 C 954.11 394.68 954.98 394.10 955.86 393.52 C 957.33 393.53 958.81 393.55 960.30 393.59 C 960.43 405.96 960.31 418.33 960.36 430.70 C 963.12 430.68 965.89 430.68 968.67 430.70 C 968.71 432.20 968.73 433.72 968.72 435.23 C 960.91 435.23 953.10 435.21 945.29 435.20 C 945.29 433.70 945.33 432.21 945.41 430.73 C 948.53 430.70 951.65 430.68 954.78 430.68 C 954.68 420.21 955.06 409.72 954.58 399.25 C 951.72 401.20 948.74 402.93 945.81 404.74 C 945.48 404.30 944.81 403.40 944.48 402.95 C 944.95 400.71 946.44 399.12 948.55 398.26 L 948.78 397.98 C 950.25 397.06 951.76 396.18 953.25 395.27 Z" />
<path fill="#fefefe" d=" M 883.83 399.89 C 885.69 397.76 888.68 397.68 891.30 397.56 C 896.36 399.38 897.53 405.24 897.68 410.00 C 897.67 415.85 898.47 422.14 895.68 427.54 C 893.33 432.54 884.83 432.63 882.56 427.52 C 880.18 422.70 880.53 417.18 880.55 411.96 C 880.61 407.81 880.96 403.15 883.83 399.89 Z" />
<path fill="#ffffff" d=" M 915.67 401.74 C 917.37 399.37 919.82 397.13 923.01 397.67 C 926.62 397.50 929.39 400.54 930.12 403.87 C 931.90 411.56 931.88 419.77 929.41 427.32 C 927.48 430.53 923.42 432.28 919.84 430.86 C 917.19 430.19 915.62 427.54 915.02 425.06 C 913.22 417.41 913.31 409.26 915.67 401.74 Z" />
<path fill="#ffffff" d=" M 984.89 399.03 C 988.00 396.87 993.01 397.11 995.31 400.37 C 998.31 405.00 997.78 410.73 997.84 416.00 C 997.98 421.07 997.56 426.79 993.47 430.39 C 992.87 430.63 991.65 431.12 991.05 431.36 C 988.91 431.28 986.84 430.86 984.78 430.38 C 980.08 425.11 980.65 417.57 980.70 411.01 C 981.03 406.82 981.39 401.91 984.89 399.03 Z" />
<path fill="#030303" d=" M 1002.41 482.27 C 1007.03 479.28 1013.05 479.93 1017.89 482.04 C 1024.21 487.89 1024.02 497.08 1023.77 505.00 C 1023.80 511.00 1022.04 517.33 1017.42 521.42 C 1012.74 523.94 1006.87 524.48 1002.12 521.85 C 998.01 519.44 996.44 514.50 995.73 510.06 C 995.11 503.08 995.00 495.92 996.97 489.13 C 998.38 486.58 999.69 483.69 1002.41 482.27 Z" />
<path fill="#020202" d=" M 965.30 487.76 C 970.24 485.06 974.44 479.78 980.58 480.53 C 980.73 493.16 980.62 505.79 980.65 518.42 C 983.41 518.43 986.19 518.45 988.96 518.51 C 989.11 519.87 989.25 521.23 989.40 522.61 C 981.43 523.05 973.43 522.88 965.45 522.75 C 965.46 521.34 965.49 519.93 965.55 518.54 C 968.77 518.45 972.00 518.44 975.24 518.42 C 975.19 508.19 975.20 497.96 975.24 487.74 C 975.03 487.47 974.62 486.93 974.41 486.66 C 971.60 488.74 968.58 490.51 965.41 491.96 C 965.34 490.55 965.32 489.15 965.30 487.76 Z" />
<path fill="#010101" d=" M 1032.52 487.15 C 1036.11 485.23 1039.45 482.91 1042.82 480.64 C 1044.32 480.63 1045.84 480.65 1047.36 480.67 C 1047.45 493.26 1047.40 505.85 1047.38 518.45 C 1050.17 518.45 1052.96 518.45 1055.76 518.50 C 1055.77 519.91 1055.78 521.32 1055.80 522.74 C 1047.96 522.90 1040.12 522.92 1032.28 522.73 C 1032.28 521.31 1032.31 519.91 1032.36 518.51 C 1035.52 518.45 1038.68 518.43 1041.86 518.46 C 1041.78 507.79 1041.90 497.13 1041.79 486.46 C 1039.21 488.06 1036.61 489.60 1034.11 491.31 C 1033.58 491.39 1032.53 491.54 1032.00 491.61 C 1032.15 490.11 1032.27 488.62 1032.52 487.15 Z" />
<path fill="#010101" d=" M 1065.42 487.76 C 1070.32 485.05 1074.57 479.91 1080.64 480.53 C 1080.86 493.16 1080.72 505.79 1080.70 518.42 C 1083.57 518.45 1086.45 518.45 1089.33 518.56 C 1089.36 519.58 1089.41 521.63 1089.44 522.65 C 1081.49 523.04 1073.52 522.86 1065.56 522.77 C 1065.57 521.35 1065.61 519.94 1065.66 518.53 C 1068.88 518.46 1072.09 518.44 1075.32 518.41 C 1075.22 507.72 1075.34 497.04 1075.26 486.35 C 1072.12 488.40 1068.96 490.46 1065.56 492.06 C 1065.48 490.62 1065.45 489.19 1065.42 487.76 Z" />
<path fill="#030303" d=" M 788.43 484.76 C 792.69 482.43 798.18 483.06 802.03 485.95 C 805.87 491.70 805.91 498.94 805.30 505.58 C 804.75 510.16 802.89 515.44 798.22 517.24 C 793.58 518.64 787.25 518.16 784.79 513.34 C 781.44 506.35 782.16 498.13 783.68 490.75 C 784.90 488.51 786.18 486.14 788.43 484.76 Z" />
<path fill="#030303" d=" M 811.26 489.43 C 813.89 483.00 823.14 481.41 828.23 485.76 C 830.62 487.89 831.32 491.11 832.09 494.07 C 832.60 500.16 832.64 506.41 830.49 512.22 C 828.26 515.98 824.35 518.14 820.01 518.33 C 815.87 517.77 811.64 515.37 810.57 511.06 C 808.75 504.06 808.51 496.22 811.26 489.43 Z" />
<path fill="#020202" d=" M 845.94 484.82 C 846.42 484.47 847.38 483.79 847.87 483.44 C 848.69 483.55 850.34 483.78 851.17 483.89 C 851.41 493.83 851.20 503.78 851.26 513.73 C 854.12 513.86 859.07 512.73 858.40 517.35 C 852.94 517.56 847.48 517.49 842.02 517.52 C 840.67 517.55 839.45 517.18 838.36 516.39 C 838.70 515.72 839.38 514.39 839.72 513.72 C 842.02 513.78 844.34 513.80 846.66 513.79 C 846.70 505.34 846.68 496.88 846.65 488.43 C 844.45 489.73 842.24 491.00 840.09 492.37 C 839.68 492.38 838.87 492.41 838.46 492.43 C 838.16 488.07 843.11 486.92 845.94 484.82 Z" />
<path fill="#fefefe" d=" M 1008.84 484.80 C 1012.06 484.51 1015.59 486.21 1016.61 489.45 C 1018.67 495.42 1018.59 501.92 1018.04 508.15 C 1017.48 511.99 1016.63 516.88 1012.50 518.42 C 1009.72 519.16 1006.17 519.22 1004.19 516.78 C 1001.15 513.20 1001.37 508.14 1000.89 503.74 C 1000.78 498.71 1000.94 493.43 1003.05 488.78 C 1003.97 486.42 1006.45 485.17 1008.84 484.80 Z" />
<path fill="#ffffff" d=" M 791.47 487.52 C 793.71 486.96 796.53 486.80 798.30 488.60 C 801.07 492.11 800.77 496.85 800.90 501.07 C 800.81 504.95 800.90 509.25 798.42 512.49 C 795.92 515.18 790.97 514.97 788.96 511.83 C 786.67 507.60 787.30 502.62 787.21 498.01 C 787.16 494.23 787.82 489.52 791.47 487.52 Z" />
<path fill="#ffffff" d=" M 815.16 491.04 C 816.30 487.34 820.72 486.33 824.00 487.68 C 827.99 490.81 827.63 496.40 827.72 500.95 C 827.69 505.16 827.89 510.39 824.25 513.28 C 821.57 515.37 818.13 514.04 815.69 512.29 C 813.33 505.51 812.99 497.89 815.16 491.04 Z" />
</svg>
